# xmcd
# 
# Track frame offsets:
#     150
#     4496
#     24541
#     41531
#     79891
#     96226
#     126824
#     131000
#     145913
#     162673
#     184566
#     232612
#     256996
#     263713
# 
# Disc length: 4243
# 
# Revision: 2
# Processed by: cddbd v1.5.2PL0 Copyright (c) Steve Scherf et al.
# Submitted via: fre:ac v1.0.17
# 
DISCID=b810910e
DTITLE=The John Butler Trio - Live At Red Rocks [CD1]
DYEAR=2011
DGENRE=Blues Rock
TTITLE0=Introduction
TTITLE1=Used To Get High
TTITLE2=I'd Do Anything
TTITLE3=Betterman
TTITLE4=Don't Wanna See Your Face
TTITLE5=Revolution
TTITLE6=Hoe Down
TTITLE7=Better Than
TTITLE8=Johnny's Gone
TTITLE9=Take Me
TTITLE10=Treat To Mama
TTITLE11=Losing You (ft. Mama Kin)
TTITLE12=Intro To Ocean
TTITLE13=Ocean
EXTD=
EXTT0=
EXTT1=
EXTT2=
EXTT3=
EXTT4=
EXTT5=
EXTT6=
EXTT7=
EXTT8=
EXTT9=
EXTT10=
EXTT11=
EXTT12=
EXTT13=
PLAYORDER=
